{"title":"PassionHD - Lobby Love (Angelica)[02-14-2014].mp4","uid":15707364,"size":195873502,"categoryP":"porn","categoryS":"hd___movies","magnet":"?xt=urn:btih:e1e645da30ee299814fd1bae281d0138db224cd2&amp;dn=PassionHD+-+Lobby+Love+%28Angelica%29%5B02-14-2014%5D.mp4&amp;tr=udp%3A%2F%2Ftracker.leechers-paradise.org%3A6969&amp;tr=udp%3A%2F%2Fzer0day.ch%3A1337&amp;tr=udp%3A%2F%2Fopen.demonii.com%3A1337&amp;tr=udp%3A%2F%2Ftracker.coppersurfer.tk%3A6969&amp;tr=udp%3A%2F%2Fexodus.desync.com%3A6969","seeders":0,"leechers":1,"uploader":"freemetoo","files":1,"time":1472535208,"description":"General\r\nFormat                                   : MPEG-4\r\nFormat profile                           : Base Media\r\nCodec ID                                 : isom (isom/iso2/avc1/mp41)\r\nFile size                                : 187 MiB\r\nDuration                                 : 24mn 2s\r\nOverall bit rate mode                    : Variable\r\nOverall bit rate                         : 1 086 Kbps\r\nEncoded date                             : UTC 2014-01-27 21:47:10\r\nTagged date                              : UTC 2014-01-27 21:47:10\r\nWriting application                      : Lavf53.24.0\r\n\r\nVideo\r\nID                                       : 1\r\nFormat                                   : AVC\r\nFormat/Info                              : Advanced Video Codec\r\nFormat profile                           :   \r\nFormat settings, CABAC                   : Yes\r\nFormat settings, ReFrames                : 5 frames\r\nCodec ID                                 : avc1\r\nCodec ID/Info                            : Advanced Video Coding\r\nDuration                                 : 24mn 2s\r\nBit rate                                 : 1 000 Kbps\r\nWidth                                    : 750 pixels\r\nHeight                                   : 420 pixels\r\nDisplay aspect ratio                     : 16:9\r\nOriginal display aspect ratio            : 16:9\r\nFrame rate mode                          : Constant\r\nFrame rate                               : 23.976 (23976/1000) fps\r\nColor space                              : YUV\r\nChroma subsampling                       : 4:2:0\r\nBit depth                                : 8 bits\r\nScan type                                : Progressive\r\nBits/(Pixel*Frame)                       : 0.132\r\nStream size                              : 172 MiB (92%)\r\nWriting library                          : x264 core 119 r2106 07efeb4\r\nEncoding settings                        : cabac=1 / ref=5 / deblock=1:0:0 / analyse=0x3:0x113 / me=umh / subme=8 / psy=0 / mixed_ref=1 / me_range=16 / chroma_me=1 / trellis=1 / 8x8dct=1 / cqm=0 / deadzone=21,11 / fast_pskip=1 / chroma_qp_offset=0 / threads=24 / sliced_threads=0 / nr=0 / decimate=1 / interlaced=0 / bluray_compat=0 / constrained_intra=0 / bframes=3 / b_pyramid=2 / b_adapt=2 / b_bias=0 / direct=3 / weightb=1 / open_gop=0 / weightp=2 / keyint=250 / keyint_min=25 / scenecut=40 / intra_refresh=0 / rc=abr / mbtree=0 / bitrate=1000 / ratetol=1.0 / qcomp=0.60 / qpmin=10 / qpmax=51 / qpstep=4 / ip_ratio=1.40 / pb_ratio=1.30 / aq=1:1.00\r\nLanguage                                 : English\r\nEncoded date                             : UTC 2014-01-27 21:47:10\r\nTagged date                              : UTC 2014-01-27 21:47:10\r\n\r\nAudio\r\nID                                       : 2\r\nFormat                                   : AAC\r\nFormat/Info                              : Advanced Audio Codec\r\nFormat profile                           : LC\r\nCodec ID                                 : 40\r\nDuration                                 : 24mn 2s\r\nBit rate mode                            : Variable\r\nBit rate                                 : 81.2 Kbps\r\nMaximum bit rate                         : 96.0 Kbps\r\nChannel(s)                               : 2 channels\r\nChannel positions                        : Front: L R\r\nSampling rate                            : 48.0 KHz\r\nFrame rate                               : 46.875 fps (1024 spf)\r\nCompression mode                         : Lossy\r\nStream size                              : 14.0 MiB (7%)\r\nLanguage                                 : English\r\nDefault                                  : Yes\r\nAlternate group                          : 1\r\nEncoded date                             : UTC 2014-01-27 21:47:10\r\nTagged date                              : UTC 2014-01-27 21:47:10","torrent":{"xt":"urn:btih:e1e645da30ee299814fd1bae281d0138db224cd2","amp;dn":"PassionHD+-+Lobby+Love+%28Angelica%29%5B02-14-2014%5D.mp4","amp;tr":["udp%3A%2F%2Ftracker.leechers-paradise.org%3A6969","udp%3A%2F%2Fzer0day.ch%3A1337","udp%3A%2F%2Fopen.demonii.com%3A1337","udp%3A%2F%2Ftracker.coppersurfer.tk%3A6969","udp%3A%2F%2Fexodus.desync.com%3A6969"],"infoHash":"e1e645da30ee299814fd1bae281d0138db224cd2","infoHashBuffer":{"type":"Buffer","data":[225,230,69,218,48,238,41,152,20,253,27,174,40,29,1,56,219,34,76,210]},"announce":[],"urlList":[]}}